# AST/ASF file generated using VICON BodyLanguage
# -----------------------------------------------
:version 1.10
:name VICON
:units
  mass 1.0
  length 0.45
  angle deg
:documentation
   .ast/.asf automatically generated from VICON data using
   VICON BodyBuilder and BodyLanguage model FoxedUp or BRILLIANT.MOD
:root
   order TX TY TZ RX RY RZ
   axis XYZ
   position 0 0 0  
   orientation 0 0 0 
:bonedata
  begin
     id 1 
     name lhipjoint
     direction 0.602128 -0.715006 0.355257 
     length 2.21237 
     axis 0 0 0  XYZ
  end
  begin
     id 2 
     name lfemur
     direction 0.34202 -0.939693 0  
     length 6.71649  
     axis 0 0 20  XYZ
    dof rx ry rz
    limits (-160.0 20.0)
           (-70.0 70.0)
           (-60.0 70.0)
  end
  begin
     id 3 
     name ltibia
     direction 0.34202 -0.939693 0   
     length 6.97123   
     axis 0 0 20   XYZ
    dof rx
    limits (-10.0 170.0)
  end
  begin
     id 4 
     name lfoot
     direction 0.0655697 -0.180151 0.981451   
     length 1.80924   
     axis -90 7.62852e-016 20   XYZ
    dof rx rz
    limits (-45.0 90.0)
           (-70.0 20.0)
  end
  begin
     id 5 
     name ltoes
     direction 1.53545e-011 -4.21827e-011 1   
     length 0.916331   
     axis -90 7.62852e-016 20   XYZ
    dof rx
    limits (-90.0 20.0)
  end
  begin
     id 6 
     name rhipjoint
     direction -0.625414 -0.698792 0.347201   
     length 2.2637  
     axis 0 0 0  XYZ 
  end
  begin
     id 7 
     name rfemur
     direction -0.34202 -0.939693 0   
     length 7.07595   
     axis 0 0 -20   XYZ
    dof rx ry rz
    limits (-160.0 20.0)
           (-70.0 70.0)
           (-70.0 60.0)
  end
  begin
     id 8 
     name rtibia
     direction -0.34202 -0.939693 0   
     length 7.22924   
     axis 0 0 -20   XYZ
    dof rx
    limits (-10.0 170.0)
 end
 begin
     id 9 
     name rfoot
     direction -0.0766747 -0.210662 0.974547   
     length 1.98482  
     axis -90 -7.62852e-016 -20   XYZ
    dof rx rz
    limits (-45.0 90.0)
           (-20.0 70.0)
  end
  begin
     id 10 
     name rtoes
     direction -1.53532e-011 -4.21867e-011 1   
     length 0.999842   
     axis -90 -7.62852e-016 -20   XYZ
    dof rx
    limits (-90.0 20.0)
  end
  begin
     id 11 
     name lowerback
     direction -0.0224668 0.997354 -0.0691422   
     length 2.09945   
     axis 0 0 0   XYZ
    dof rx ry rz
    limits (-20.0 45.0)
           (-30.0 30.0)
           (-30.0 30.0)
  end
  begin
     id 12 
     name upperback
     direction 0.0134698 0.998451 -0.0539888   
     length 2.09758   
     axis 0 0 0   XYZ
    dof rx ry rz
    limits (-20.0 45.0)
           (-30.0 30.0)
           (-30.0 30.0)
  end
  begin
     id 13 
     name thorax
     direction 0.0241905 0.99948 -0.0213333   
     length 2.10428   
     axis 0 0 0   XYZ
    dof rx ry rz
    limits (-20.0 45.0)
           (-30.0 30.0)
           (-30.0 30.0)
  end
  begin
     id 14 
     name lowerneck
     direction -0.00866847 0.995978 0.0891737   
     length 1.3959   
     axis 0 0 0   XYZ
    dof rx ry rz
    limits (-20.0 45.0)
           (-30.0 30.0)
           (-30.0 30.0)
  end
  begin
     id 15 
     name upperneck
     direction 0.0680679 0.992203 0.104404   
     length 1.39452   
     axis 0 0 0   XYZ
    dof rx ry rz
    limits (-20.0 45.0)
           (-30.0 30.0)
           (-30.0 30.0)
  end
  begin
     id 16
     name head
     direction 0.0242216 0.999358 0.0264054  
     length 1.40433  
     axis 0 0 0   XYZ
    dof rx ry rz
    limits (-20.0 45.0)
           (-30.0 30.0)
           (-30.0 30.0)
  end
  begin
     id 17 
     name lclavicle
     direction 0.929368 0.362991 -0.0671771  
     length 3.04887  
     axis 0 0 0   XYZ
    dof ry rz
    limits (-20.0 10.0)
           (0.0 20.0)
  end
  begin
     id 18 
     name lhumerus
     direction 1 -4.48967e-011 -7.13741e-028   
     length 4.77195   
     axis -180 -30 -90   XYZ
    dof rx ry rz
    limits (-60.0 90.0)
           (-90.0 90.0)
           (-90.0 90.0)
  end
  begin
     id 19
     name lradius
     direction 1 -4.48977e-011 3.60404e-027   
     length 2.98444   
     axis -180 -30 -90   XYZ
    dof rx
    limits (-10.0 170.0)
  end
  begin
     id 20
     name lwrist
     direction 1 -4.48997e-011 7.54877e-027   
     length 1.49222   
     axis -7.18178e-015 90 90   XYZ
    dof ry
    limits (-180.0 0.0)
 end
  begin
     id 21 
     name lhand
     direction 1 -4.489e-011 1.51105e-026   
     length 0.992285   
     axis -9.63605e-015 90 90   XYZ
    dof rx rz
    limits (-90.0 90.0)
           (-45.0 45.0)
  end
  begin
     id 22 
     name lfingers
     direction 1 -4.48998e-011 3.01948e-026   
     length 0.800006   
     axis -1.92718e-014 90 90   XYZ
    dof rx
    limits (0.0 90.0)
  end
  begin
     id 23
     name lthumb
     direction 0.707107 -6.34881e-011 0.707107   
     length 1.14865   
     axis -90 45 -3.53137e-014   XYZ
    dof rx rz
    limits (-45.0 45.0)
           (-45.0 45.0)
  end
  begin
     id 24 
     name rclavicle
     direction -0.945672 0.324529 0.0196374   
     length 3.4236  
     axis 0 0 0   XYZ 
    dof ry rz
    limits (-10.0 20.0)
           (-20.0 0.0)
  end
  begin
     id 25 
     name rhumerus
     direction -1 -4.4896e-011 1.02757e-029  
     length 4.62052   
     axis -180 30 90   XYZ
    dof rx ry rz
    limits (-90.0 60.0)
           (-90.0 90.0)
           (-90.0 90.0)
  end
  begin
     id 26 
     name rradius
     direction -1 -4.48982e-011 3.85962e-027   
     length 2.95332   
     axis -180 30 90   XYZ
    dof rx
    limits (-10.0 170.0)
  end
  begin
     id 27 
     name rwrist
     direction -1 -4.48961e-011 7.55118e-027   
     length 1.47666   
     axis -7.18178e-015 -90 -90   XYZ
    dof ry
    limits (-180.0 0.0)
  end
  begin
     id 28
     name rhand
     direction -1 -4.48984e-011 1.50994e-026   
     length 0.990956   
     axis -9.63605e-015 -90 -90   XYZ
    dof rx rz
    limits (-90.0 90.0)
           (-45.0 45.0)
  end
  begin
     id 29
     name rfingers
     direction -1 -4.4892e-011 3.02158e-026   
     length 0.798934   
     axis -1.92718e-014 -90 -90   XYZ
    dof rx
    limits (0.0 90.0)
  end
  begin
     id 30
     name rthumb
     direction -0.707107 -6.34916e-011 0.707107   
     length 1.14711   
     axis -90 -45 3.53137e-014   XYZ
    dof rx rz
    limits (-45.0 45.0)
           (-45.0 45.0)
  end
:hierarchy
  begin
    root lhipjoint rhipjoint lowerback
    lhipjoint lfemur
    lfemur ltibia
    ltibia lfoot
    lfoot ltoes
    rhipjoint rfemur
    rfemur rtibia
    rtibia rfoot
    rfoot rtoes
    lowerback upperback
    upperback thorax
    thorax lowerneck lclavicle rclavicle
    lowerneck upperneck
    upperneck head
    lclavicle lhumerus
    lhumerus lradius
    lradius lwrist
    lwrist lhand lthumb
    lhand lfingers
    rclavicle rhumerus
    rhumerus rradius
    rradius rwrist
    rwrist rhand rthumb
    rhand rfingers
  end

#!OML:ASF H:\ManfredObstacles\Project 1\Capture day 1\Session 1\Male.ASF
:FULLY-SPECIFIED
:DEGREES
129
root -14.8401 16.4007 13.8653 -175.765 42.1039 -185.058
lowerback -8.13692 -2.91582 -7.04121
upperback 2.48802 -3.06778 -0.382329
thorax 7.57652 -1.80348 3.09333
lowerneck 0.106208 -3.5254 -6.3186
upperneck -4.31996 -4.16108 13.2506
head -0.846488 -2.09195 5.0361
rclavicle 8.11538e-014 8.15017e-015
rhumerus -40.6869 -20.5745 -72.0351
rradius 29.7411
rwrist 31.868
rhand -2.55136 -4.67834
rfingers 7.12502
rthumb 23.1445 -33.308
lclavicle 8.11538e-014 8.15017e-015
lhumerus -27.6174 9.14852 82.638
lradius 19.7067
lwrist -26.6796
lhand -9.00866 8.82205
lfingers 7.12502
lthumb 16.9381 38.1035
rfemur -27.8413 -5.19998 17.0127
rtibia 63.8904
rfoot -12.8523 17.8166
rtoes 21.8035
lfemur -16.4642 3.74072 -22.9882
ltibia 22.0436
lfoot -5.15469 -17.6114
ltoes -3.64581
130
root -14.7693 16.3966 13.7456 -175.519 43.3102 -185.042
lowerback -8.05758 -3.05232 -7.165
upperback 2.47242 -3.25367 -0.273202
thorax 7.55006 -1.90288 3.25221
lowerneck -0.0244441 -3.61281 -6.20976
upperneck -4.04632 -4.30461 13.2476
head -0.73361 -2.15648 5.00931
rclavicle -1.03865e-014 1.33186e-014
rhumerus -40.7549 -20.7824 -72.1865
rradius 30.1042
rwrist 30.976
rhand -2.77181 -5.39895
rfingers 7.12502
rthumb 22.933 -34.055
lclavicle -1.03865e-014 1.33186e-014
lhumerus -26.808 8.69892 82.6475
lradius 19.2413
lwrist -27.2804
lhand -8.64496 8.88602
lfingers 7.12502
lthumb 17.2882 38.1371
rfemur -30.24 -5.75689 17.3769
rtibia 63.9866
rfoot -14.6078 16.1147
rtoes 21.8399
lfemur -16.1677 3.93237 -23.0108
ltibia 22.3124
lfoot -6.28664 -16.9451
ltoes -5.71384
131
root -14.6926 16.3892 13.6273 -174.884 44.4993 -184.654
lowerback -8.0546 -3.12798 -7.04816
upperback 2.35493 -3.38962 -0.101569
thorax 7.44023 -1.96504 3.35095
lowerneck -0.0181718 -3.73767 -5.93748
upperneck -3.72239 -4.50878 13.1649
head -0.629407 -2.25596 4.93212
rclavicle 5.643e-014 -4.57205e-015
rhumerus -41.0604 -21.0102 -72.2716
rradius 30.5201
rwrist 30.1635
rhand -2.61876 -5.67648
rfingers 7.12502
rthumb 23.0798 -34.3143
lclavicle 5.643e-014 -4.57205e-015
lhumerus -26.2019 8.29811 82.5801
lradius 19.0742
lwrist -27.961
lhand -8.25501 8.95037
lfingers 7.12502
lthumb 17.6635 38.1681
rfemur -32.5784 -6.01672 18.1421
rtibia 63.4555
rfoot -16.634 13.703
rtoes 18.8335
lfemur -16.0186 3.97591 -22.7395
ltibia 22.5805
lfoot -7.38392 -16.1141
ltoes -6.85979
132
root -14.6124 16.3822 13.5054 -174.4 45.5847 -184.467
lowerback -8.10364 -3.25243 -7.01663
upperback 2.26161 -3.56978 0.0141167
thorax 7.39468 -2.05241 3.42764
lowerneck 0.206058 -3.81667 -5.7677
upperneck -3.56131 -4.64227 13.1132
head -0.61283 -2.33051 4.88924
rclavicle 6.00081e-014 3.77691e-015
rhumerus -41.281 -21.0179 -72.4068
rradius 30.6969
rwrist 29.1716
rhand -2.44268 -5.3947
rfingers 7.12502
rthumb 23.2487 -34.0113
lclavicle 6.00081e-014 3.77691e-015
lhumerus -25.6132 8.04416 82.4613
lradius 19.0578
lwrist -28.4749
lhand -8.0727 9.09078
lfingers 7.12502
lthumb 17.8389 38.2926
rfemur -34.675 -6.32243 18.7593
rtibia 62.3066
rfoot -18.2022 11.247
rtoes 14.5864
lfemur -15.7622 3.91772 -22.6764
ltibia 22.7021
lfoot -8.4789 -15.2107
ltoes -7.93516
133
root -14.5297 16.3772 13.3833 -174.132 46.4614 -184.388
lowerback -7.99111 -3.52207 -7.0656
upperback 2.27259 -3.94642 0.16574
thorax 7.40193 -2.24449 3.56018
lowerneck 0.298161 -3.80485 -5.79919
upperneck -3.50623 -4.6406 13.1122
head -0.61168 -2.33386 4.8954
rclavicle 1.99779e-014 -1.82882e-014
rhumerus -41.1292 -20.7233 -72.6343
rradius 30.6061
rwrist 28.5024
rhand -2.09461 -5.2754
rfingers 7.12502
rthumb 23.5826 -33.8494
lclavicle 1.99779e-014 -1.82882e-014
lhumerus -24.997 8.02318 82.3708
lradius 19.212
lwrist -28.5992
lhand -8.17923 9.18692
lfingers 7.12502
lthumb 17.7364 38.398
rfemur -36.3486 -6.89138 19.3061
rtibia 60.5228
rfoot -19.1179 9.33453
rtoes 13.3528
lfemur -15.2874 3.71863 -22.7119
ltibia 22.711
lfoot -9.57662 -14.4061
ltoes -9.19779
134
root -14.4397 16.3764 13.2658 -173.675 47.2052 -183.989
lowerback -7.79179 -3.80969 -7.01502
upperback 2.38426 -4.37205 0.446727
thorax 7.47891 -2.46524 3.7678
lowerneck -0.023344 -3.83664 -5.81592
upperneck -3.48076 -4.6822 13.0678
head -0.547478 -2.34413 4.87697
rclavicle 3.64024e-014 -1.5704e-014
rhumerus -40.7579 -20.2382 -72.9704
rradius 30.528
rwrist 28.4452
rhand -1.79721 -5.29263
rfingers 7.12502
rthumb 23.8679 -33.8296
lclavicle 3.64024e-014 -1.5704e-014
lhumerus -24.2384 7.94034 82.4358
lradius 19.4876
lwrist -28.4078
lhand -8.54288 9.18562
lfingers 7.12502
lthumb 17.3864 38.428
rfemur -37.6451 -7.41802 20.1201
rtibia 58.105
rfoot -19.8929 7.62378
rtoes 13.5714
lfemur -14.6535 3.51844 -22.4818
ltibia 22.4737
lfoot -10.6595 -13.6485
ltoes -11.0891
135
root -14.3392 16.3809 13.1512 -173.042 47.9548 -183.347
lowerback -7.64847 -3.93586 -6.74894
upperback 2.4846 -4.5937 0.64976
thorax 7.52642 -2.57263 3.80366
lowerneck -0.194695 -3.92514 -5.7249
upperneck -3.55805 -4.78307 13.1684
head -0.530995 -2.39098 4.88885
rclavicle 2.79044e-014 -1.28216e-014
rhumerus -40.7382 -19.9837 -73.2745
rradius 30.4969
rwrist 28.556
rhand -1.71848 -5.00304
rfingers 7.12502
rthumb 23.9434 -33.5301
lclavicle 2.79044e-014 -1.28216e-014
lhumerus -23.5657 7.0434 82.5847
lradius 19.9827
lwrist -27.4819
lhand -8.83229 9.47357
lfingers 7.12502
lthumb 17.1079 38.7404
rfemur -38.5873 -7.79582 21.1383
rtibia 55.1121
rfoot -20.5512 5.70118
rtoes 12.6391
lfemur -13.886 3.49732 -22.0546
ltibia 22.0088
lfoot -11.4783 -12.9713
ltoes -12.5078
136
root -14.2304 16.3906 13.0272 -172.675 48.65 -182.942
lowerback -7.57442 -4.02634 -6.45062
upperback 2.5974 -4.7505 0.680386
thorax 7.59999 -2.64112 3.645
lowerneck -0.175571 -3.98138 -5.60111
upperneck -3.58601 -4.84461 13.3761
head -0.533451 -2.42377 4.93179
rclavicle -2.33572e-015 9.93923e-016
rhumerus -40.9565 -20.2023 -73.3573
rradius 30.2583
rwrist 29.1501
rhand -1.47958 -4.66747
rfingers 7.12502
rthumb 24.1725 -33.1643
lclavicle -2.33572e-015 9.93923e-016
lhumerus -23.0551 6.04397 82.5681
lradius 20.5738
lwrist -26.1405
lhand -8.80237 9.60798
lfingers 7.12502
lthumb 17.1367 38.8723
rfemur -39.1115 -8.50485 22.0397
rtibia 51.6443
rfoot -20.8075 3.9029
rtoes 11.95
lfemur -12.8217 3.60236 -21.84
ltibia 21.264
lfoot -11.8919 -12.4071
ltoes -12.6181
137
root -14.1096 16.4 12.9171 -172.543 49.1924 -182.98
lowerback -7.46545 -4.23386 -6.80153
upperback 2.63945 -5.00885 0.82443
thorax 7.66259 -2.79124 3.95587
lowerneck -0.34926 -4.06717 -5.50841
upperneck -3.44291 -4.97221 13.3617
head -0.453484 -2.4795 4.90444
rclavicle -2.34814e-014 1.45113e-014
rhumerus -41.2301 -20.5169 -73.0521
rradius 29.9944
rwrist 30.3284
rhand -1.06262 -4.49913
rfingers 7.12502
rthumb 24.5722 -32.9422
lclavicle -2.34814e-014 1.45113e-014
lhumerus -22.5497 5.46402 82.6119
lradius 20.9948
lwrist -25.1291
lhand -8.93631 9.41623
lfingers 7.12502
lthumb 17.0077 38.6917
rfemur -39.6401 -9.23845 22.7564
rtibia 47.8636
rfoot -20.7245 2.17663
rtoes 12.4258
lfemur -11.7761 3.6706 -21.8885
ltibia 20.1536
lfoot -11.7777 -11.8054
ltoes -12.2281
138
root -13.9849 16.4152 12.7967 -172.616 49.5619 -183.462
lowerback -7.4852 -4.52757 -7.39689
upperback 2.58458 -5.35314 0.99194
thorax 7.73971 -2.99381 4.40784
lowerneck -0.40117 -4.22532 -5.53609
upperneck -3.53459 -5.18451 13.2745
head -0.45293 -2.58758 4.87987
rclavicle -5.97099e-014 2.38542e-014
rhumerus -41.646 -20.6348 -72.5477
rradius 29.8205
rwrist 31.1845
rhand -0.827741 -4.4913
rfingers 7.12502
rthumb 24.7973 -32.9036
lclavicle -5.97099e-014 2.38542e-014
lhumerus -22.1676 4.97973 82.8844
lradius 21.408
lwrist -24.3953
lhand -9.65865 9.52118
lfingers 7.12502
lthumb 16.3123 38.8551
rfemur -40.14 -10.398 23.2201
rtibia 43.8977
rfoot -20.3379 1.25644
rtoes 12.8695
lfemur -10.6264 3.64381 -22.2879
ltibia 18.6862
lfoot -11.4442 -11.2357
ltoes -12.1028
139
root -13.8545 16.4316 12.6748 -172.843 50.044 -184.13
lowerback -7.60335 -4.74537 -7.91548
upperback 2.52018 -5.58368 1.01035
thorax 7.8303 -3.13183 4.66977
lowerneck -0.258269 -4.37255 -5.54787
upperneck -3.86319 -5.35576 13.3038
head -0.554393 -2.68692 4.89718
rclavicle -3.72721e-016 -1.2921e-015
rhumerus -42.1492 -20.958 -72.0917
rradius 29.442
rwrist 31.5475
rhand -0.986088 -4.71357
rfingers 7.12502
rthumb 24.6455 -33.1467
lclavicle -3.72721e-016 -1.2921e-015
lhumerus -21.8576 4.42984 83.0823
lradius 21.9085
lwrist -23.6172
lhand -10.3449 9.7768
lfingers 7.12502
lthumb 15.6515 39.1637
rfemur -40.5338 -11.5917 23.5865
rtibia 39.8862
rfoot -19.4105 1.33014
rtoes 12.9756
lfemur -9.28397 3.78194 -22.8262
ltibia 16.9438
lfoot -11.2887 -10.7409
ltoes -12.9835
140
root -13.7179 16.4439 12.559 -172.494 50.4122 -184.136
lowerback -7.8877 -4.89188 -7.82896
upperback 2.49334 -5.76509 0.9978
thorax 7.98168 -3.21855 4.556
lowerneck -0.227679 -4.4313 -5.50087
upperneck -3.93614 -5.42178 13.4419
head -0.571139 -2.72342 4.93258
rclavicle -4.17696e-014 2.38542e-015
rhumerus -42.6897 -21.7149 -71.6593
rradius 28.8757
rwrist 31.9454
rhand -1.15549 -5.0048
rfingers 7.12502
rthumb 24.4832 -33.46
lclavicle -4.17696e-014 2.38542e-015
lhumerus -21.4092 3.46193 83.1122
lradius 22.4224
lwrist -22.5084
lhand -10.2255 9.85458
lfingers 7.12502
lthumb 15.7665 39.2324
rfemur -40.9087 -12.6452 24.4293
rtibia 35.9588
rfoot -18.2048 2.07529
rtoes 13.3436
lfemur -7.92112 3.98634 -22.8324
ltibia 14.9649
lfoot -11.0999 -10.4708
ltoes -13.8785
